<?xml version="1.0" encoding="utf-8"?>
<svg version="1.1"
	 id="svg3104" inkscape:version="0.48.4 r9939" sodipodi:docname="Synology.svg" xmlns:cc="http://creativecommons.org/ns#" xmlns:dc="http://purl.org/dc/elements/1.1/" xmlns:inkscape="http://www.inkscape.org/namespaces/inkscape" xmlns:rdf="http://www.w3.org/1999/02/22-rdf-syntax-ns#" xmlns:sodipodi="http://sodipodi.sourceforge.net/DTD/sodipodi-0.dtd" xmlns:svg="http://www.w3.org/2000/svg"
	 xmlns="http://www.w3.org/2000/svg" xmlns:xlink="http://www.w3.org/1999/xlink" x="0px" y="0px" viewBox="0 0 1417.3 373.9"
	 style="enable-background:new 0 0 1417.3 373.9;" xml:space="preserve">
<sodipodi:namedview  bordercolor="#666666" borderopacity="1.0" fit-margin-bottom="2" fit-margin-left="2" fit-margin-right="2" fit-margin-top="2" id="base" inkscape:current-layer="layer1" inkscape:cx="145.98488" inkscape:cy="4.7574987" inkscape:document-units="px" inkscape:pageopacity="0.0" inkscape:pageshadow="2" inkscape:window-height="706" inkscape:window-maximized="1" inkscape:window-width="1366" inkscape:window-x="-8" inkscape:window-y="-8" inkscape:zoom="1.4" pagecolor="#ffffff" showgrid="false">
	</sodipodi:namedview>
<g id="g12" transform="translate(39.4376,541.665)">
	<path id="path14" inkscape:connector-curvature="0" d="M-39.4-340.8l50.8-4.8c3.1,17,9.3,29.6,18.7,37.7c9.4,8,22.1,12,38,12
		c16.8,0,29.6-3.6,38.2-10.7c8.5-7.2,12.8-15.5,12.8-25c0-6.1-1.8-11.5-5.4-15.8c-3.6-4.2-9.9-8.1-18.8-11.1
		c-6.2-2.4-20.1-6.1-41.9-11.6c-28-6.9-47.7-15.5-58.9-25.7c-15.9-14.4-23.9-32-23.9-52.6c0-13.2,3.7-25.8,11.3-37.2
		c7.4-11.6,18.3-20.4,32.5-26.5c14.1-5.9,31-9,51.1-9c32.5,0,57,7.2,73.5,21.5c16.5,14.6,25.1,33.7,25.9,57.7l-52.6,1.8
		c-2.3-13.1-7-22.8-14.4-28.7c-7.3-5.9-18.4-8.8-33-8.8c-15.2,0-27.1,3.1-35.6,9.5c-5.6,4.1-8.3,9.3-8.3,16.1
		c0,6.3,2.6,11.4,7.8,15.8c6.6,5.7,22.6,11.5,48.1,17.4c25.5,6.1,44.3,12.3,56.4,18.8c12.2,6.5,21.8,15.3,28.7,26.6
		c6.8,11,10.4,25.1,10.4,41.6c0,14.9-4.2,29-12.4,42c-8.3,13-20,22.8-35.1,29.1c-15.1,6.2-34,9.5-56.5,9.5c-32.8,0-58.1-7.7-75.7-23
		C-25.5-289.4-36-311.6-39.4-340.8"/>
</g>
<g id="g16" transform="translate(53.3329,548.733)">
	<path id="path18" inkscape:connector-curvature="0" d="M151.2-451.9H204l45,134.1l43.9-134.1h51.4l-66.1,181.6l-12.1,33.1
		c-4.4,11.1-8.5,19.4-12.4,25.2c-3.9,5.9-8.5,10.7-13.6,14.2c-5.2,3.5-11.5,6.4-18.9,8.4c-7.5,2-16,3.2-25.4,3.2
		c-9.5,0-18.9-1.1-28.2-3.2l-4.1-39.2c7.7,1.6,14.8,2.4,21,2.4c11.5,0,20-3.4,25.5-10.1c5.6-6.9,9.8-15.7,12.7-26.2L151.2-451.9z"/>
</g>
<g id="g20" transform="translate(78.1938,535.901)">
	<path id="path22" inkscape:connector-curvature="0" d="M492.4-250.1h-49.7v-96.2c0-20.3-1-33.3-3.2-39.4c-2.2-6-5.6-10.6-10.4-13.9
		c-4.8-3.3-10.7-4.9-17.4-4.9c-8.7,0-16.5,2.4-23.5,7.2c-7,4.7-11.7,10.9-14.2,18.6c-2.5,7.9-3.8,22.2-3.8,43.4v85.3h-49.6V-439
		h45.9v27.7c16.5-20.9,37.2-31.3,62.3-31.3c11.1,0,21.2,2,30.3,5.8c9.2,4.1,16.1,9,20.7,15.2c4.7,6.2,7.9,13.1,9.8,20.9
		c1.8,7.7,2.8,19,2.8,33.5V-250.1z"/>
</g>
<g id="g24" transform="translate(81.6659,542.281)">
	<path id="path26" inkscape:connector-curvature="0" d="M540-350.4c0,18.9,4.4,33.3,13.4,43c8.9,10.1,19.9,15.1,33,15.1
		c13.1,0,24.1-5,33-15.1c8.8-9.8,13.2-24.3,13.2-43.3c0-18.7-4.4-32.9-13.2-42.8c-8.9-9.9-19.9-15-33-15c-13.1,0-24.1,5.1-33,15
		C544.4-383.6,540-369.2,540-350.4 M489.2-353c0-16.8,4.1-32.7,12.3-48.3c8.2-15.5,19.7-27.3,34.7-35.6c15-8.2,31.8-12.2,50.2-12.2
		c28.6,0,52,9.2,70.2,27.8c18.3,18.6,27.4,42,27.4,70.3c0,28.6-9.2,52.2-27.7,71c-18.4,18.7-41.7,28.3-69.6,28.3
		c-17.3,0-33.8-4-49.5-11.8c-15.7-7.8-27.6-19.3-35.8-34.5C493.3-313,489.2-331.3,489.2-353"/>
</g>
<g id="g28" transform="translate(95.59,555.312)">
	<path id="path30" inkscape:connector-curvature="0" d="M731.1-555.3v243.9c0,11.6,0.9,19.3,2.5,23c1.7,3.9,4.3,6.7,7.7,8.6
		c3.5,1.9,10,2.9,19.4,2.9v7.3h-90.1v-7.3c8.5,0,14.2-0.9,17.4-2.7c3-1.8,5.4-4.6,7.1-8.6c1.8-4,2.6-11.7,2.6-23.2v-166.4
		c0-20.9-0.4-33.8-1.3-38.6c-0.9-4.8-2.4-8-4.4-9.7c-2-1.8-4.6-2.8-7.7-2.8c-3.4,0-7.7,1.2-12.9,3.3l-3.4-7.1l54.1-22.5H731.1z"/>
</g>
<g id="g32" transform="translate(103.261,547.855)">
	<path id="path34" inkscape:connector-curvature="0" d="M836.3-438.1c-7.1,0-14.2,1.8-21.4,6.2c-7.2,4.3-13,11.5-17.4,22
		c-4.4,10.7-6.6,24.1-6.6,40.7c0,26.7,5.4,49.6,16,69.1c10.7,19.2,24.7,29,42.1,29c13.1,0,23.8-5.5,32.1-16
		c8.5-10.7,12.7-29,12.7-55.1c0-32.6-7-58.1-21.1-76.8C863.2-431.9,851-438.1,836.3-438.1 M842.5-451.6c28,0,50.3,10.6,67.2,31.8
		c14.3,18,21.5,38.8,21.5,62.2c0,16.5-3.9,33.2-11.8,50c-7.9,16.8-18.8,29.6-32.8,38.1c-13.9,8.6-29.3,12.9-46.3,12.9
		c-27.9,0-49.9-11.1-66.3-33.1c-13.8-18.5-20.7-39.5-20.7-62.7c0-16.9,4.2-33.6,12.5-50.1c8.5-16.8,19.5-29,33.2-37.2
		C812.8-447.6,827.2-451.6,842.5-451.6"/>
</g>
<g id="g36" transform="translate(114.826,548.085)">
	<path id="path38" inkscape:connector-curvature="0" d="M995-441.7c-9.9,0-18,4.1-24.7,12c-6.6,7.8-9.9,19.6-9.9,35.9
		c0,21,4.5,37.2,13.5,48.8c7,8.7,15.7,13.1,26.2,13.1c10.1,0,18.5-3.9,24.9-11.4c6.5-7.6,9.7-19.4,9.7-35.5
		c0-21.2-4.5-37.7-13.7-49.6C1014.2-437.1,1005.6-441.7,995-441.7 M958.4-262.3c-6.1,6.6-10.7,13-13.9,19
		c-3.2,5.6-4.7,11.1-4.7,15.9c0,6.6,3.8,12.1,11.5,16.9c13.4,8.2,32.7,12.4,57.9,12.4c24,0,41.6-4.3,53.1-12.7
		c11.5-8.4,17.1-17.3,17.1-26.9c0-6.8-3.4-11.7-10.3-14.7c-7-3-20.7-4.7-41.4-5.1C997.8-258.4,974.6-260.1,958.4-262.3 M960-329.8
		c-11.2-5.7-19.7-13.2-25.8-23c-5.9-9.9-8.9-20.7-8.9-32.5c0-18.2,6.8-33.9,20.4-46.8c13.7-13.1,31.3-19.7,52.6-19.7
		c17.4,0,32.6,4.1,45.4,12.7h38.9c5.8,0,9.1,0.2,10.1,0.5c0.9,0.4,1.5,1,1.9,1.7c0.8,1.3,1.2,3.4,1.2,6.4c0,3.5-0.4,6.1-1,7.3
		c-0.4,0.7-1.1,1.3-2.1,1.6c-1,0.4-4.3,0.6-10.2,0.6h-24c7.6,9.7,11.4,22,11.4,37.1c0,17.1-6.6,31.8-19.7,43.9
		c-13.1,12.2-30.7,18.4-52.6,18.4c-9.1,0-18.4-1.3-27.9-4.3c-5.6,5.3-9.4,9.7-11.3,13.5c-2,3.9-3,7.1-3,9.7c0,2.5,1.1,4.6,3.4,6.8
		c2.1,2.1,6.5,3.7,12.9,4.5c3.7,0.7,13.1,1.2,28,1.6c27.5,0.9,45.3,1.9,53.4,3.3c12.4,1.7,22.4,6.4,29.8,13.8
		c7.4,7.4,11.1,16.5,11.1,27.4c0,14.9-7.1,29.1-21.2,42.3c-20.7,19.3-47.9,29-81.3,29c-25.7,0-47.5-5.7-65.2-17.3
		c-10-6.7-15-13.6-15-20.8c0-3.1,0.7-6.4,2.1-9.6c2.2-5,6.8-11.6,13.8-20.5c0.9-1.3,7.7-8.4,20-21.6c-6.9-4.3-11.8-8-14.6-11.4
		c-2.9-3.3-4.3-7.1-4.3-11.2c0-4.8,1.8-10.2,5.6-16.5C937.7-309.4,946.5-318.4,960-329.8"/>
</g>
<g id="g40" transform="translate(122.069,548.41)">
	<path id="path42" inkscape:connector-curvature="0" d="M1094.4-446.8h86v7.4h-4.2c-6.1,0-10.6,1.4-13.6,3.9c-3,2.7-4.5,5.9-4.5,9.7
		c0,5.3,2.1,12.5,6.6,21.7l44.9,93.1l41.1-101.7c2.3-5.6,3.4-11,3.4-16.5c0-2.4-0.6-4.1-1.4-5.3c-1.1-1.4-2.8-2.7-5-3.5
		c-2.2-0.9-6.3-1.4-12-1.4v-7.4h59.5v7.4c-4.9,0.5-8.8,1.6-11.4,3.2c-2.7,1.7-5.7,4.6-8.8,8.9c-1.2,1.9-3.6,7-6.9,15.4l-74.6,183.4
		c-7.3,17.9-16.8,31.3-28.6,40.4c-11.8,9.2-23.1,13.6-34,13.6c-7.9,0-14.4-2.1-19.6-6.8c-5.1-4.5-7.6-9.7-7.6-15.6
		c0-5.6,1.8-9.9,5.5-13.4c3.7-3.5,8.9-5.1,15.3-5.1c4.5,0,10.6,1.4,18.2,4.3c5.4,1.8,8.8,3,10.2,3c4,0,8.3-2.2,13.2-6.3
		c4.7-4.1,9.5-12.1,14.3-23.9l13-32l-66.2-138.4c-2-4.2-5.3-9.3-9.6-15.5c-3.4-4.6-6.1-7.8-8.3-9.5c-3.1-2-8.1-3.9-14.9-5.6V-446.8z
		"/>
</g>
</svg>
