<?xml version="1.0" ?><svg height="36" id="svg4488" version="1.1" width="36" xmlns="http://www.w3.org/2000/svg" xmlns:cc="http://creativecommons.org/ns#" xmlns:dc="http://purl.org/dc/elements/1.1/" xmlns:inkscape="http://www.inkscape.org/namespaces/inkscape" xmlns:rdf="http://www.w3.org/1999/02/22-rdf-syntax-ns#" xmlns:sodipodi="http://sodipodi.sourceforge.net/DTD/sodipodi-0.dtd" xmlns:svg="http://www.w3.org/2000/svg"><defs id="defs4490"/><g id="layer1" transform="translate(0,-1016.3622)"><path d="m 18,1022.3622 c -3.62991,0 -6.60699,2.7492 -6.96484,6.2832 -0.0239,0.2356 -0.0352,0.4748 -0.0352,0.7168 10e-6,3.8719 3.12809,7 7,7 3.87192,0 7,-3.1281 7,-7 0,-3.8719 -3.12808,-7 -7,-7 z m 0,4 c 1.65093,0 3,1.3491 3,3 0,1.6509 -1.34907,3 -3,3 -1.65092,0 -2.99999,-1.3491 -3,-3 10e-6,-1.6509 1.34908,-3 3,-3 z m 0,1 c -1.11048,0 -2,0.8895 -2,2 0,1.1105 0.88952,2 2,2 1.11049,0 2,-0.8895 2,-2 0,-1.1105 -0.88951,-2 -2,-2 z m -10,1.5 0,0.5 c 10e-6,3.5718 1.9067,6.8742 5,8.6602 3.09332,1.7859 6.90669,1.7859 10,0 3.09331,-1.786 4.99999,-5.0884 5,-8.6602 l 0,-0.5 -0.5,0 -1.66406,0 0,1 1.09766,0 c -0.17115,3.0171 -1.7966,5.7705 -4.4336,7.293 -2.7853,1.6081 -6.21469,1.6081 -9,0 -2.63698,-1.5225 -4.26243,-4.2759 -4.43359,-7.293 l 0.83203,0 0,-1 -1.39844,0 -0.5,0 z m 9,11.5 0,3 2,0 0,-3 -2,0 z m -3.5,4 c -0.83964,0 -1.5,0.6604 -1.5,1.5 l 0,0.5 12,0 0,-0.5 c 0,-0.8396 -0.66035,-1.5 -1.5,-1.5 l -2.5,0 -4,0 -2.5,0 z" id="path4159" style="font-size:medium;font-style:normal;font-variant:normal;font-weight:normal;font-stretch:normal;text-indent:0;text-align:start;text-decoration:none;line-height:normal;letter-spacing:normal;word-spacing:normal;text-transform:none;direction:ltr;block-progression:tb;writing-mode:lr-tb;text-anchor:start;baseline-shift:baseline;color:#000000;fill:#000000;fill-opacity:1;fill-rule:nonzero;stroke:none;visibility:visible;display:inline;overflow:visible;enable-background:accumulate;font-family:sans-serif"/></g></svg>