<?xml version="1.0" encoding="UTF-8"?>
<svg width="414px" height="466px" viewBox="0 0 414 466" version="1.1" xmlns="http://www.w3.org/2000/svg" xmlns:xlink="http://www.w3.org/1999/xlink">
    <!-- Generator: Sketch 52.5 (67469) - http://www.bohemiancoding.com/sketch -->
    <title>Combined Shape</title>
    <desc>Created with Sketch.</desc>
    <g id="Page-1" stroke="none" stroke-width="1" fill="none" fill-rule="evenodd">
        <path d="M272.056404,403.570316 C251.598408,410.337423 229.726924,414 207,414 C184.273074,414 162.401589,410.337422 141.943592,403.570314 C90.6459835,412.767623 53.8026107,432.246963 43.7546323,454 L370.245368,454 C360.197389,432.246962 323.354015,412.767623 272.056405,403.57031 Z M199.202875,401.84704 C201.794144,401.948885 204.393539,402 207,402 C209.606461,402 212.205856,401.948885 214.797125,401.84704 C318.878023,397.754184 402,312.084181 402,207 C402,99.3044738 314.695526,12 207,12 C99.3044738,12 12,99.3044738 12,207 C12,312.084181 95.1219767,397.754184 199.202885,401.846964 Z M292.471335,395.585966 C343.905544,407.97718 379.157875,431.107901 384.341096,458.899967 L385.665252,466 L28.3347483,466 L29.6589044,458.899967 C34.8421246,431.107901 70.0944548,407.977181 121.528665,395.585967 C49.8499864,363.047928 0,290.845508 0,207 C0,92.6770568 92.6770568,0 207,0 C321.322943,0 414,92.6770568 414,207 C414,290.845508 364.150014,363.047928 292.471335,395.585966 Z M207,304 C153.428379,304 110,260.571621 110,207 C110,153.428379 153.428379,110 207,110 C260.571621,110 304,153.428379 304,207 C304,260.571621 260.571621,304 207,304 Z M207,296 C256.153343,296 296,256.153343 296,207 C296,157.846657 256.153343,118 207,118 C157.846657,118 118,157.846657 118,207 C118,256.153343 157.846657,296 207,296 Z M145.217957,219.389912 C162.984649,227.086579 185.933066,222.420794 202.17693,206.17693 C219.976313,188.377546 223.874003,162.528068 212.838022,144.266906 C244.895067,147.212486 270,174.174457 270,207 C270,241.793939 241.793939,270 207,270 C176.446951,270 150.973712,248.250746 145.217957,219.389912 Z M207,68 C197.611159,68 190,60.3888407 190,51 C190,41.6111593 197.611159,34 207,34 C216.388841,34 224,41.6111593 224,51 C224,60.3888407 216.388841,68 207,68 Z" id="Combined-Shape" fill="#000000" fill-rule="nonzero"></path>
    </g>
</svg>